# Blender 5.1.1
# www.blender.org
mtllib pipe.mtl
o Cylinder
v -1.434151 0.406524 -2.644413
v 2.535163 0.419859 1.079223
v -1.686642 -0.017447 -2.373745
v 2.282672 -0.004112 1.349890
v -2.050672 -0.199543 -1.985045
v 1.918642 -0.186208 1.738591
v -2.428699 -0.090968 -1.582464
v 1.540615 -0.077633 2.141171
v -2.719432 0.279181 -1.273875
v 1.249881 0.292517 2.449761
v -2.844969 0.811727 -1.141962
v 1.124344 0.825062 2.581673
v -2.771672 1.363970 -1.222073
v 1.197641 1.377306 2.501563
v -2.519181 1.787941 -1.492741
v 1.450132 1.801276 2.230894
v -2.155151 1.970034 -1.881441
v 1.814162 1.983369 1.842194
v -1.777124 1.861462 -2.284021
v 2.192190 1.874797 1.439614
v -1.486391 1.491313 -2.592611
v 2.482923 1.504648 1.131024
v -1.360854 0.958769 -2.724523
v 2.608459 0.972105 0.999112
v -1.561440 0.497641 -2.509052
v -1.502094 0.944776 -2.573914
v 2.467219 0.958111 1.149721
v 2.407874 0.510976 1.214584
v -1.765872 0.154366 -2.289902
v 2.203441 0.167701 1.433734
v -2.060615 0.006935 -1.975185
v 1.908699 0.020270 1.748451
v -2.366690 0.094839 -1.649230
v 1.602624 0.108174 2.074405
v -2.602087 0.394536 -1.399376
v 1.367227 0.407871 2.324259
v -2.703729 0.825721 -1.292571
v 1.265585 0.839056 2.431064
v -2.644383 1.272852 -1.357434
v 1.324930 1.286188 2.366201
v -2.439950 1.616125 -1.576584
v 1.529363 1.629460 2.147051
v -2.145208 1.763562 -1.891301
v 1.824105 1.776897 1.832335
v -1.839133 1.675652 -2.217256
v 2.130181 1.688987 1.506380
v -1.603737 1.375957 -2.467109
v 2.365577 1.389292 1.256526
v -1.309987 0.978828 -3.093278
v -0.599816 0.981214 -2.427063
v -1.842812 2.134275 -2.529436
v -1.132641 2.136661 -1.863220
v -2.792646 2.040169 -1.516597
v -2.082475 2.042554 -0.850381
v -3.209654 0.790614 -1.067600
v -2.499483 0.793000 -0.401385
v -2.676829 -0.364835 -1.631443
v -1.966658 -0.362450 -0.965227
v -1.726995 -0.270729 -2.644282
v -1.016824 -0.268343 -1.978066
v -1.939685 1.844002 -2.425132
v -1.530636 0.956967 -2.857992
v -0.820465 0.959352 -2.191777
v -1.229514 1.846388 -1.758917
v -2.668869 1.771757 -1.647579
v -1.958698 1.774142 -0.981364
v -2.989005 0.812476 -1.302886
v -2.278834 0.814861 -0.636671
v -2.579957 -0.074560 -1.735746
v -1.869785 -0.072174 -1.069530
v -1.850772 -0.002314 -2.513299
v -1.140601 0.000072 -1.847084
v 2.519378 0.991693 0.499071
v 3.229549 0.994079 1.165286
v 1.986553 2.147141 1.062912
v 2.696724 2.149527 1.729128
v 1.036719 2.053033 2.075751
v 1.746891 2.055419 2.741967
v 0.619711 0.803479 2.524748
v 1.329883 0.805865 3.190964
v 1.152537 -0.351971 1.960905
v 1.862708 -0.349585 2.627121
v 2.102370 -0.257864 0.948066
v 2.812542 -0.255477 1.614282
v 1.889681 1.856864 1.167216
v 2.298729 0.969831 0.734356
v 3.008901 0.972218 1.400572
v 2.599852 1.859250 1.833432
v 1.160496 1.784618 1.944769
v 1.870668 1.787004 2.610985
v 0.840361 0.825340 2.289462
v 1.550532 0.827726 2.955678
v 1.249409 -0.061695 1.856602
v 1.959580 -0.059309 2.522818
v 1.978593 0.010550 1.079049
v 2.688765 0.012937 1.745265
vn 0.6717 -0.1929 -0.7153
vn 0.5166 -0.6577 -0.5483
vn 0.2231 -0.9462 -0.2344
vn -0.1302 -0.9812 0.1423
vn -0.4486 -0.7533 0.4809
vn -0.6468 -0.3235 0.6906
vn -0.6717 0.1929 0.7153
vn -0.5166 0.6577 0.5483
vn -0.2230 0.9462 0.2344
vn 0.1302 0.9812 -0.1423
vn 0.4486 0.7533 -0.4809
vn 0.6468 0.3235 -0.6906
vn -0.7293 -0.0025 -0.6842
vn -0.7293 -0.0024 -0.6842
vn 0.7293 0.0025 0.6842
vn 0.7293 0.0024 0.6842
vn 0.5670 0.5574 -0.6064
vn -0.0480 0.9977 0.0476
vn -0.6151 0.4403 0.6541
vn -0.5670 -0.5574 0.6064
vn 0.0480 -0.9977 -0.0476
vn 0.6151 -0.4403 -0.6541
vt 0.083333 0.000000
vt 0.083333 1.000000
vt 0.000000 1.000000
vt 0.000000 0.000000
vt 0.166667 0.000000
vt 0.166667 1.000000
vt 0.250000 0.000000
vt 0.250000 1.000000
vt 0.333333 0.000000
vt 0.333333 1.000000
vt 0.416667 0.000000
vt 0.416667 1.000000
vt 0.500000 0.000000
vt 0.500000 1.000000
vt 0.583333 0.000000
vt 0.583333 1.000000
vt 0.666667 0.000000
vt 0.666667 1.000000
vt 0.750000 0.000000
vt 0.750000 1.000000
vt 0.833333 0.000000
vt 0.833333 1.000000
vt 0.916667 0.000000
vt 0.916667 1.000000
vt 1.000000 0.000000
vt 1.000000 1.000000
vt 0.833333 0.000000
vt 0.833333 1.000000
vt 0.666667 0.000000
vt 0.666667 1.000000
vt 0.500000 0.000000
vt 0.500000 1.000000
vt 0.333333 0.000000
vt 0.333333 1.000000
vt 0.166667 0.000000
vt 0.166667 1.000000
vt -0.000000 0.000000
vt -0.000000 1.000000
s 0
f 2/1/1 1/2/1 23/3/1 24/4/1
f 4/5/2 3/6/2 1/2/2 2/1/2
f 6/7/3 5/8/3 3/6/3 4/5/3
f 8/9/4 7/10/4 5/8/4 6/7/4
f 10/11/5 9/12/5 7/10/5 8/9/5
f 12/13/6 11/14/6 9/12/6 10/11/6
f 14/15/7 13/16/7 11/14/7 12/13/7
f 16/17/8 15/18/8 13/16/8 14/15/8
f 18/19/9 17/20/9 15/18/9 16/17/9
f 20/21/10 19/22/10 17/20/10 18/19/10
f 22/23/11 21/24/11 19/22/11 20/21/11
f 24/25/12 23/26/12 21/24/12 22/23/12
f 28/1/7 27/4/7 26/3/7 25/2/7
f 30/5/8 28/1/8 25/2/8 29/6/8
f 32/7/9 30/5/9 29/6/9 31/8/9
f 34/9/10 32/7/10 31/8/10 33/10/10
f 36/11/11 34/9/11 33/10/11 35/12/11
f 38/13/12 36/11/12 35/12/12 37/14/12
f 40/15/1 38/13/1 37/14/1 39/16/1
f 42/17/2 40/15/2 39/16/2 41/18/2
f 44/19/3 42/17/3 41/18/3 43/20/3
f 46/21/4 44/19/4 43/20/4 45/22/4
f 48/23/5 46/21/5 45/22/5 47/24/5
f 27/25/6 48/23/6 47/24/6 26/26/6
f 9/12/13 35/12/13 33/10/13 7/10/13
f 19/22/14 45/22/14 43/20/14 17/20/14
f 22/23/15 48/23/15 27/25/15 24/25/15
f 8/9/15 34/9/15 36/11/15 10/11/15
f 18/19/15 44/19/15 46/21/15 20/21/15
f 5/8/13 31/8/13 29/6/13 3/6/13
f 15/18/13 41/18/13 39/16/13 13/16/13
f 4/5/15 30/5/15 32/7/15 6/7/15
f 14/15/15 40/15/15 42/17/15 16/17/15
f 1/2/13 25/2/13 26/3/13 23/3/13
f 11/14/14 37/14/14 35/12/14 9/12/14
f 21/24/13 47/24/13 45/22/13 19/22/13
f 24/4/15 27/4/15 28/1/15 2/1/15
f 10/11/15 36/11/15 38/13/15 12/13/15
f 20/21/15 46/21/15 48/23/15 22/23/15
f 7/10/14 33/10/14 31/8/14 5/8/14
f 17/20/13 43/20/13 41/18/13 15/18/13
f 6/7/16 32/7/16 34/9/16 8/9/16
f 16/17/15 42/17/15 44/19/15 18/19/15
f 3/6/14 29/6/14 25/2/14 1/2/14
f 13/16/13 39/16/13 37/14/13 11/14/13
f 23/26/13 26/26/13 47/24/13 21/24/13
f 2/1/15 28/1/15 30/5/15 4/5/15
f 12/13/15 38/13/15 40/15/15 14/15/15
f 49/25/17 51/27/17 52/28/17 50/26/17
f 51/27/18 53/29/18 54/30/18 52/28/18
f 53/29/19 55/31/19 56/32/19 54/30/19
f 55/31/20 57/33/20 58/34/20 56/32/20
f 57/33/21 59/35/21 60/36/21 58/34/21
f 59/35/22 49/37/22 50/38/22 60/36/22
f 62/25/20 63/26/20 64/28/20 61/27/20
f 61/27/21 64/28/21 66/30/21 65/29/21
f 65/29/22 66/30/22 68/32/22 67/31/22
f 67/31/17 68/32/17 70/34/17 69/33/17
f 69/33/18 70/34/18 72/36/18 71/35/18
f 71/35/19 72/36/19 63/38/19 62/37/19
f 50/26/15 52/28/15 64/28/15 63/26/15
f 49/37/14 59/35/14 71/35/14 62/37/14
f 59/35/13 57/33/13 69/33/13 71/35/13
f 57/33/13 55/31/13 67/31/13 69/33/13
f 60/36/15 50/38/15 63/38/15 72/36/15
f 51/27/14 49/25/14 62/25/14 61/27/14
f 55/31/13 53/29/13 65/29/13 67/31/13
f 58/34/15 60/36/15 72/36/15 70/34/15
f 53/29/14 51/27/14 61/27/14 65/29/14
f 56/32/15 58/34/15 70/34/15 68/32/15
f 54/30/15 56/32/15 68/32/15 66/30/15
f 52/28/16 54/30/16 66/30/16 64/28/16
f 73/25/17 75/27/17 76/28/17 74/26/17
f 75/27/18 77/29/18 78/30/18 76/28/18
f 77/29/19 79/31/19 80/32/19 78/30/19
f 79/31/20 81/33/20 82/34/20 80/32/20
f 81/33/21 83/35/21 84/36/21 82/34/21
f 83/35/22 73/37/22 74/38/22 84/36/22
f 86/25/20 87/26/20 88/28/20 85/27/20
f 85/27/21 88/28/21 90/30/21 89/29/21
f 89/29/22 90/30/22 92/32/22 91/31/22
f 91/31/17 92/32/17 94/34/17 93/33/17
f 93/33/18 94/34/18 96/36/18 95/35/18
f 95/35/19 96/36/19 87/38/19 86/37/19
f 74/26/15 76/28/15 88/28/15 87/26/15
f 73/37/13 83/35/13 95/35/13 86/37/13
f 83/35/14 81/33/14 93/33/14 95/35/14
f 81/33/13 79/31/13 91/31/13 93/33/13
f 84/36/15 74/38/15 87/38/15 96/36/15
f 75/27/13 73/25/13 86/25/13 85/27/13
f 79/31/13 77/29/13 89/29/13 91/31/13
f 82/34/15 84/36/15 96/36/15 94/34/15
f 77/29/13 75/27/13 85/27/13 89/29/13
f 80/32/15 82/34/15 94/34/15 92/32/15
f 78/30/15 80/32/15 92/32/15 90/30/15
f 76/28/15 78/30/15 90/30/15 88/28/15
